<svg xmlns="http://www.w3.org/2000/svg" viewBox="0 0 200 200" width="200" height="200">
  <defs>
    <linearGradient id="g1" x1="0%" y1="0%" x2="100%" y2="100%">
      <stop offset="0%" style="stop-color:#FF6B35;stop-opacity:1" />
      <stop offset="100%" style="stop-color:#D4380D;stop-opacity:1" />
    </linearGradient>
    <linearGradient id="g2" x1="0%" y1="0%" x2="100%" y2="100%">
      <stop offset="0%" style="stop-color:#FFD700;stop-opacity:1" />
      <stop offset="100%" style="stop-color:#FF8C00;stop-opacity:1" />
    </linearGradient>
  </defs>
  
  <!-- Background -->
  <circle cx="100" cy="100" r="96" fill="url(#g1)" />
  <circle cx="100" cy="100" r="88" fill="#FDF8F3" />
  
  <!-- Plate -->
  <ellipse cx="100" cy="135" rx="55" ry="14" fill="#F0F0F0" stroke="#DDD" stroke-width="1"/>
  
  <!-- Cloche -->
  <path d="M 50 135 Q 50 75 100 60 Q 150 75 150 135" fill="url(#g2)" opacity="0.9"/>
  <path d="M 50 135 Q 50 78 100 63 Q 150 78 150 135" fill="none" stroke="#D4380D" stroke-width="2"/>
  
  <!-- Handle -->
  <ellipse cx="100" cy="56" rx="10" ry="7" fill="#D4380D"/>
  
  <!-- Steam -->
  <path d="M 85 48 Q 83 38 87 28" fill="none" stroke="#FF6B35" stroke-width="2.5" stroke-linecap="round" opacity="0.7"/>
  <path d="M 100 44 Q 98 32 102 22" fill="none" stroke="#FF6B35" stroke-width="2.5" stroke-linecap="round" opacity="0.7"/>
  <path d="M 115 48 Q 113 38 117 28" fill="none" stroke="#FF6B35" stroke-width="2.5" stroke-linecap="round" opacity="0.7"/>
  
  <!-- Sparkles -->
  <circle cx="72" cy="35" r="2.5" fill="#FFD700" opacity="0.8"/>
  <circle cx="128" cy="32" r="2" fill="#FFD700" opacity="0.8"/>
  
  <!-- Text -->
  <text x="100" y="170" font-family="Georgia, serif" font-size="22" font-weight="bold" fill="#D4380D" text-anchor="middle" letter-spacing="2">AAYOJAN</text>
  <text x="100" y="188" font-family="sans-serif" font-size="9" fill="#FF6B35" text-anchor="middle">আয়োজন</text>
</svg>
